<?xml version="1.0" standalone="no"?>
<!DOCTYPE svg PUBLIC "-//W3C//DTD SVG 20010904//EN"
 "http://www.w3.org/TR/2001/REC-SVG-20010904/DTD/svg10.dtd">
<svg version="1.0" xmlns="http://www.w3.org/2000/svg"
 width="90.000000pt" height="90.000000pt" viewBox="0 0 90.000000 90.000000"
 preserveAspectRatio="xMidYMid meet">

<g transform="translate(0.000000,90.000000) scale(0.100000,-0.100000)"
fill="#000000" stroke="none">
<path d="M334 765 c-30 -65 -47 -226 -25 -239 22 -14 10 -27 -21 -24 -54 5
-63 39 -49 171 7 60 10 112 7 114 -7 7 -36 -64 -47 -118 -5 -25 -9 -79 -7
-120 l3 -74 85 -5 84 -5 -108 -33 -108 -33 4 -52 c4 -54 83 -237 108 -252 10
-6 12 -3 6 11 -23 60 -64 225 -59 242 4 15 40 42 57 42 2 0 6 -27 9 -60 5 -58
70 -220 83 -208 3 3 -2 34 -11 68 -26 102 -31 183 -11 203 29 28 36 20 36 -43
0 -112 59 -220 114 -206 39 10 80 103 85 194 2 39 7 72 11 72 5 0 16 -8 25
-17 14 -14 16 -28 11 -81 -4 -36 -13 -92 -21 -126 -20 -83 -18 -89 10 -36 32
59 65 164 65 206 0 38 0 38 35 22 34 -15 33 -57 -6 -187 -17 -57 -28 -105 -26
-107 11 -11 108 204 114 251 7 63 3 66 -112 100 -49 14 -91 28 -94 30 -2 3 32
5 77 5 80 0 82 1 88 26 10 41 -3 184 -21 236 -26 74 -36 68 -28 -14 11 -105 9
-184 -6 -202 -8 -9 -27 -16 -43 -16 -25 0 -29 3 -22 18 14 32 16 104 4 165
-12 61 -47 144 -56 134 -3 -3 -1 -31 5 -63 12 -66 14 -203 3 -220 -11 -17 -45
-25 -62 -14 -12 7 -12 12 -2 22 17 17 15 99 -4 126 -24 35 -70 30 -94 -10 -24
-39 -25 -63 -5 -102 9 -16 13 -31 11 -34 -11 -10 -59 -4 -67 9 -12 19 -11 150
1 223 5 33 7 62 5 64 -3 3 -17 -21 -31 -53z"/>
</g>
</svg>
