<svg width="32.000000pt" height="33.000000pt" viewBox="0 0 32.000000 33.000000" xmlns="http://www.w3.org/2000/svg">
  <g transform="translate(0.000000,33.000000) scale(0.100000,-0.100000)" fill="#fefefe" stroke="none">
    <path d="M0 165 l0 -165 160 0 160 0 0 165 0 165 -160 0 -160 0 0 -165z m90
105 c0 -5 -5 -10 -11 -10 -5 0 -7 5 -4 10 3 6 8 10 11 10 2 0 4 -4 4 -10z
m107 4 c-3 -3 -12 -4 -19 -1 l-13 5 19 1 c11 1 17 -2 13 -5z m33 -48 c-5 -4
-13 -5 -19 -2 -5 4 -8 13 -5 21 l6 14 13 -12 13 -12 -8 -9z m-117 -16 l5 -20
-9 6 c-5 3 -9 12 -9 20 0 8 2 14 4 14 2 0 6 -9 9 -20z m164 -87 l-5 -18 0 30
c0 17 2 24 5 18 2 -7 2 -21 0 -30z m-197 -58 c0 -7 6 -16 13 -18 6 -3 2 -6
-10 -6 l-23 -1 0 26 0 25 10 -6 c6 -3 10 -12 10 -20z m47 3 l-5 -13 -1 19 c-1
11 2 17 5 13 3 -3 4 -12 1 -19z" />
  </g>
  <g transform="translate(0.000000,33.000000) scale(0.100000,-0.100000)" fill="#19b34d" stroke="none">
    <path d="M160 275 l0 -15 25 0 25 0 0 15 0 15 -25 0 -25 0 0 -15z" />
    <path d="M218 243 c-10 -2 -18 -11 -18 -18 0 -8 5 -17 11 -20 5 -4 19 1 29 10
11 10 17 22 14 26 -3 5 -8 8 -12 8 -4 -1 -15 -3 -24 -6z" />
    <path d="M210 114 l0 -65 37 3 36 3 5 14 4 13 -31 -7 -31 -7 0 22 0 22 24 -6
24 -6 6 16 c3 9 6 24 6 35 l0 19 -15 0 -15 0 0 -20 0 -20 -15 0 -15 0 0 25 c0
14 -4 25 -10 25 l-10 0 0 -66z" />
  </g>
  <g transform="translate(0.000000,33.000000) scale(0.100000,-0.100000)" fill="#f0f0f0" stroke="none">
    <path d="M195 280 c3 -5 11 -10 16 -10 6 0 7 5 4 10 -3 6 -11 10 -16 10 -6 0
-7 -4 -4 -10z" />
    <path d="M93 261 c3 -13 2 -32 -3 -41 l-9 -17 24 -23 c14 -13 27 -21 30 -18 3
2 -2 27 -11 54 -9 27 -21 54 -27 59 l-10 10 6 -24z" />
    <path d="M220 245 c0 -8 4 -15 9 -15 6 0 12 4 15 9 3 5 -1 11 -9 15 l-15 5 0
-14z" />
    <path d="M60 234 l0 -15 10 6 c6 3 10 10 10 16 0 5 -4 9 -10 9 -5 0 -10 -7
-10 -16z" />
    <path d="M185 241 c-3 -5 -1 -12 5 -16 l10 -6 0 15 c0 9 -2 16 -4 16 -3 0 -7
-4 -11 -9z" />
    <path d="M50 65 l0 -35 25 0 c14 0 25 5 25 10 0 6 -7 10 -15 10 -8 0 -15 4
-15 9 0 5 5 11 12 13 l12 4 -8 12 c-4 7 -14 12 -22 12 l-14 0 0 -35z" />
    <path d="M110 90 c0 -5 5 -10 10 -10 6 0 10 5 10 10 0 6 -4 10 -10 10 -5 0
-10 -4 -10 -10z" />
  </g>
  <g transform="translate(0.000000,33.000000) scale(0.100000,-0.100000)" fill="#dee6e3" stroke="none">
    <path d="M65 279 c-2 -8 -11 -34 -20 -58 -8 -24 -12 -47 -9 -52 3 -5 9 -7 14
-4 5 3 8 13 8 23 -1 9 4 34 11 55 7 21 10 41 7 44 -3 3 -8 0 -11 -8z" />
    <path d="M193 250 l-2 -20 15 0 14 0 0 20 c0 11 -6 20 -13 20 -7 0 -13 -9 -14
-20z" />
    <path d="M120 170 c0 -5 5 -10 11 -10 5 0 7 5 4 10 -3 6 -8 10 -11 10 -2 0 -4
-4 -4 -10z" />
    <path d="M260 163 c0 -10 3 -28 6 -40 4 -13 10 -23 15 -23 5 0 9 9 9 21 l0 20
-10 -6 -10 -6 0 16 0 16 11 -7 12 -7 -5 13 c-2 8 -10 16 -16 18 l-12 4 0 -19z" />
    <path d="M60 49 l0 -21 13 4 c6 3 13 12 15 21 l3 17 -15 0 -16 0 0 -21z" />
    <path d="M270 60 l-15 -10 12 0 c6 0 15 5 18 10 3 6 5 10 3 10 -2 0 -10 -5
-18 -10z" />
  </g>
  <g transform="translate(0.000000,33.000000) scale(0.100000,-0.100000)" fill="#9c9c9c" stroke="none">
    <path d="M72 278 c-7 -7 -12 -18 -12 -26 l0 -14 14 5 14 6 5 -20 5 -19 -24 0
-24 0 0 -13 0 -14 30 5 30 4 0 -16 c0 -9 5 -16 10 -16 6 0 10 5 10 12 0 6 -8
35 -17 65 -9 29 -19 53 -23 53 -3 0 -11 -5 -18 -12z" />
  </g>
  <g transform="translate(0.000000,33.000000) scale(0.100000,-0.100000)" fill="#73cc91" stroke="none">
    <path d="M210 255 c0 -8 5 -15 10 -15 6 0 10 7 10 15 0 8 -4 15 -10 15 -5 0
-10 -7 -10 -15z" />
    <path d="M215 170 c4 -6 7 -32 7 -58 l1 -47 7 25 c4 14 5 35 3 48 l-5 22 21 0
c12 0 21 5 21 10 0 6 -14 10 -31 10 l-30 0 6 -10z" />
  </g>
  <g transform="translate(0.000000,33.000000) scale(0.100000,-0.100000)" fill="#abdcbc" stroke="none">
    <path d="M190 270 l-15 -10 18 0 c9 0 17 5 17 10 0 6 -1 10 -2 10 -2 0 -10 -5
-18 -10z" />
    <path d="M210 208 c0 -4 4 -8 9 -8 6 0 12 4 15 8 3 5 -1 9 -9 9 -8 0 -15 -4
-15 -9z" />
    <path d="M255 170 l-6 -10 15 0 c9 0 16 -7 16 -15 0 -8 -3 -14 -7 -14 -5 1
-19 1 -32 0 l-25 -1 10 -10 11 -11 26 10 c15 6 27 17 27 25 0 7 -6 19 -14 25
l-14 12 -7 -11z" />
    <path d="M223 53 c9 -2 25 -2 35 0 9 3 1 5 -18 5 -19 0 -27 -2 -17 -5z" />
  </g>
  <g transform="translate(0.000000,33.000000) scale(0.100000,-0.100000)" fill="#747474" stroke="none">
    <path d="M60 90 c0 -5 5 -10 10 -10 6 0 10 5 10 10 0 6 -4 10 -10 10 -5 0 -10
-4 -10 -10z" />
    <path d="M115 81 c-3 -10 -3 -26 1 -35 3 -9 10 -16 15 -16 5 0 9 16 9 35 0 19
-4 35 -9 35 -5 0 -12 -8 -16 -19z" />
  </g>
  <g transform="translate(0.000000,33.000000) scale(0.100000,-0.100000)" fill="#24b555" stroke="none">
    <path d="M204 265 l7 -18 -13 -8 -13 -8 19 -18 19 -18 -6 17 c-3 10 -2 20 3
23 4 3 7 13 6 22 -2 9 -9 19 -16 21 l-13 5 7 -18z" />
    <path d="M254 163 c3 -4 13 -8 21 -9 8 -1 13 2 9 7 -3 5 -12 9 -21 9 -9 0 -13
-3 -9 -7z" />
    <path d="M264 107 l1 -37 13 -5 12 -4 0 22 c0 13 -6 32 -14 42 l-14 19 2 -37z" />
    <path d="M227 119 c7 -7 15 -10 18 -7 3 3 -2 9 -12 12 l-18 7 12 -12z" />
  </g>
  <g transform="translate(0.000000,33.000000) scale(0.100000,-0.100000)" fill="#416681" stroke="none">
    <path d="M54 238 c-9 -29 -19 -59 -22 -65 -2 -7 0 -13 6 -13 5 0 15 12 21 28
6 15 12 37 14 49 2 11 9 28 16 37 l13 16 -15 0 -15 0 -18 -52z" />
    <path d="M87 264 c-4 -4 -3 -12 0 -18 4 -6 8 -17 9 -24 2 -8 5 -20 8 -28 3 -9
11 -12 16 -9 l11 7 -12 14 c-6 8 -8 14 -4 14 4 0 1 7 -6 17 -8 9 -12 18 -11
20 2 3 2 7 0 9 -3 2 -8 1 -11 -2z" />
  </g>
  <g transform="translate(0.000000,33.000000) scale(0.100000,-0.100000)" fill="#c1dacf" stroke="none">
    <path d="M200 272 c0 -5 7 -9 15 -9 8 0 12 4 9 9 -3 4 -9 8 -15 8 -5 0 -9 -4
-9 -8z" />
    <path d="M94 246 c1 -13 7 -30 14 -38 6 -8 8 -19 4 -23 l-7 -8 13 7 13 8 -12
14 c-6 8 -8 14 -4 14 4 0 1 7 -6 17 -8 9 -12 18 -11 20 2 3 2 7 -1 9 -2 2 -3
-7 -3 -20z" />
    <path d="M168 263 c7 -3 16 -2 19 1 4 3 -2 6 -13 5 l-19 -1 13 -5z" />
    <path d="M190 231 c0 -5 8 -15 18 -22 l17 -14 -12 16 c-7 9 -10 19 -6 22 3 4
1 7 -5 7 -7 0 -12 -4 -12 -9z" />
  </g>
  <g transform="translate(0.000000,33.000000) scale(0.100000,-0.100000)" fill="#abdcbc" stroke="none">
    <path d="M168 283 c6 -2 18 -2 25 0 6 3 1 5 -13 5 -14 0 -19 -2 -12 -5z" />
    <path d="M239 248 c0 -2 -2 -11 -4 -21 l-3 -18 14 12 c7 6 11 15 8 20 -3 5 -7
9 -10 9 -2 0 -4 -1 -5 -2z" />
  </g>
  <g transform="translate(0.000000,33.000000) scale(0.100000,-0.100000)" fill="#dee6e3" stroke="none">
    <path d="M73 255 c0 -6 6 -12 12 -12 6 0 12 6 12 12 0 6 -6 12 -12 12 -6 0
-12 -6 -12 -12z" />
    <path d="M190 240 c0 -5 5 -10 11 -10 5 0 7 5 4 10 -3 6 -8 10 -11 10 -2 0 -4
-4 -4 -10z" />
    <path d="M264 106 c0 -19 4 -32 9 -29 4 2 5 16 3 30 -3 14 -7 27 -9 30 -3 2
-4 -12 -3 -31z" />
  </g>
  <g transform="translate(0.000000,33.000000) scale(0.100000,-0.100000)" fill="#50728b" stroke="none">
    <path d="M60 259 c0 -5 5 -7 10 -4 6 3 10 8 10 11 0 2 -4 4 -10 4 -5 0 -10 -5
-10 -11z" />
    <path d="M96 212 c-3 -5 4 -18 17 -28 l22 -19 -15 19 c-8 11 -13 21 -12 23 2
3 1 7 -1 9 -3 3 -8 1 -11 -4z" />
    <path d="M40 199 c0 -4 4 -10 9 -13 5 -3 11 0 14 7 l5 14 -14 0 c-8 0 -14 -4
-14 -8z" />
  </g>
  <g transform="translate(0.000000,33.000000) scale(0.100000,-0.100000)" fill="#728da1" stroke="none">
    <path d="M60 261 c0 -6 4 -13 10 -16 l10 -6 -6 15 c-3 9 -8 16 -10 16 -2 0 -4
-4 -4 -9z" />
    <path d="M50 235 c0 -5 4 -15 8 -21 4 -6 17 -13 30 -16 l22 -6 -6 9 c-3 5 -10
9 -16 9 -6 0 -17 8 -24 18 -7 9 -13 13 -14 7z" />
    <path d="M40 201 c0 -6 4 -13 10 -16 l10 -6 -6 15 c-3 9 -8 16 -10 16 -2 0 -4
-4 -4 -9z" />
  </g>
  <g transform="translate(0.000000,33.000000) scale(0.100000,-0.100000)" fill="#4cc174" stroke="none">
    <path d="M200 240 l-15 -10 18 0 c9 0 17 5 17 10 0 6 -1 10 -2 10 -2 0 -10 -5
-18 -10z" />
    <path d="M228 163 c6 -2 18 -2 25 0 6 3 1 5 -13 5 -14 0 -19 -2 -12 -5z" />
    <path d="M267 121 c6 -7 9 -19 7 -26 -3 -7 -1 -16 5 -20 l11 -6 0 19 c0 11 -8
26 -17 33 l-18 13 12 -13z" />
  </g>
  <g transform="translate(0.000000,33.000000) scale(0.100000,-0.100000)" fill="#201f1f" stroke="none">
    <path d="M61 65 l1 -40 10 28 10 29 -11 11 -11 11 1 -39z" />
    <path d="M116 91 c-4 -7 -5 -15 -2 -18 3 -4 9 -4 12 0 3 3 4 11 2 18 l-4 13
-8 -13z" />
  </g>
  <g transform="translate(0.000000,33.000000) scale(0.100000,-0.100000)" fill="#323232" stroke="none">
    <path d="M70 82 c0 -7 5 -22 10 -33 6 -10 14 -19 19 -19 4 0 13 11 19 25 l11
24 -8 6 c-5 3 -12 -3 -15 -12 l-7 -16 -14 19 -14 19 -1 -13z" />
  </g>
  <g transform="translate(0.000000,33.000000) scale(0.100000,-0.100000)" fill="#34ba62" stroke="none">
    <path d="M210 240 c0 -5 7 -10 16 -10 l15 0 -6 10 c-3 6 -10 10 -16 10 -5 0
-9 -4 -9 -10z" />
    <path d="M281 94 l1 -19 5 13 c3 7 2 16 -1 19 -3 4 -6 -2 -5 -13z" />
  </g>
  <g transform="translate(0.000000,33.000000) scale(0.100000,-0.100000)" fill="#a4b4c0" stroke="none">
    <path d="M30 170 c0 -5 5 -10 11 -10 5 0 7 5 4 10 -3 6 -8 10 -11 10 -2 0 -4
-4 -4 -10z" />
  </g>
  <g transform="translate(0.000000,33.000000) scale(0.100000,-0.100000)" fill="#b2bbc1" stroke="none">
    <path d="M91 56 l-12 -14 13 2 c7 1 15 5 16 10 2 4 2 10 -1 12 -2 2 -10 -2
-16 -10z" />
  </g>
  <g transform="translate(0.000000,33.000000) scale(0.100000,-0.100000)" fill="#4cc174" stroke="none" />
  <g transform="translate(0.000000,33.000000) scale(0.100000,-0.100000)" fill="#201f1f" stroke="none">
    <path d="M105 50 c-4 -6 -11 -7 -17 -4 l-11 7 7 -11 c4 -7 11 -12 16 -12 4 0
10 7 14 15 3 8 4 15 1 15 -2 0 -7 -5 -10 -10z" />
  </g>
  <g transform="translate(0.000000,33.000000) scale(0.100000,-0.100000)" fill="#909090" stroke="none" />
  <g transform="translate(0.000000,33.000000) scale(0.100000,-0.100000)" fill="#9c9c9c" stroke="none" />
</svg>